<svg width="101" height="101" viewBox="0 0 101 101" fill="none" xmlns="http://www.w3.org/2000/svg">
<rect width="101" height="101" fill="#1E1E1E"/>
<g id="pop up" clip-path="url(#clip0_0_1)">
<rect width="1440" height="1784" transform="translate(-366 -592)" fill="#F3F4F8"/>
<g id="filter">
<path id="&#208;&#158;&#209;&#135;&#208;&#184;&#209;&#129;&#209;&#130;&#208;&#184;&#209;&#130;&#209;&#140;" d="M-11.35 39.9091C-11.35 40.983 -11.5439 41.911 -11.9316 42.6932C-12.3194 43.4754 -12.8514 44.0786 -13.5275 44.5028C-14.2037 44.9271 -14.9759 45.1392 -15.8443 45.1392C-16.7127 45.1392 -17.4849 44.9271 -18.161 44.5028C-18.8372 44.0786 -19.3691 43.4754 -19.7569 42.6932C-20.1447 41.911 -20.3386 40.983 -20.3386 39.9091C-20.3386 38.8352 -20.1447 37.9072 -19.7569 37.125C-19.3691 36.3428 -18.8372 35.7396 -18.161 35.3153C-17.4849 34.8911 -16.7127 34.679 -15.8443 34.679C-14.9759 34.679 -14.2037 34.8911 -13.5275 35.3153C-12.8514 35.7396 -12.3194 36.3428 -11.9316 37.125C-11.5439 37.9072 -11.35 38.8352 -11.35 39.9091ZM-12.5431 39.9091C-12.5431 39.0275 -12.6906 38.2834 -12.9856 37.6768C-13.2773 37.0703 -13.6734 36.6113 -14.1738 36.2997C-14.671 35.9882 -15.2278 35.8324 -15.8443 35.8324C-16.4608 35.8324 -17.0192 35.9882 -17.5197 36.2997C-18.0169 36.6113 -18.4129 37.0703 -18.7079 37.6768C-18.9996 38.2834 -19.1454 39.0275 -19.1454 39.9091C-19.1454 40.7907 -18.9996 41.5348 -18.7079 42.1413C-18.4129 42.7479 -18.0169 43.2069 -17.5197 43.5185C-17.0192 43.83 -16.4608 43.9858 -15.8443 43.9858C-15.2278 43.9858 -14.671 43.83 -14.1738 43.5185C-13.6734 43.2069 -13.2773 42.7479 -12.9856 42.1413C-12.6906 41.5348 -12.5431 40.7907 -12.5431 39.9091ZM-3.54954 37.3636V45H-4.72283V37.3636H-3.54954ZM-4.00692 41.0028V42.0966C-4.27208 42.196 -4.53557 42.2839 -4.79741 42.3601C-5.05924 42.433 -5.33434 42.491 -5.62269 42.5341C-5.91104 42.5739 -6.22757 42.5938 -6.57227 42.5938C-7.43732 42.5938 -8.13169 42.3601 -8.65536 41.8928C-9.17572 41.4254 -9.4359 40.7244 -9.4359 39.7898V37.3438H-8.26261V39.7898C-8.26261 40.1809 -8.18803 40.5024 -8.03888 40.7543C-7.88974 41.0062 -7.68756 41.1934 -7.43235 41.3161C-7.17714 41.4387 -6.89045 41.5 -6.57227 41.5C-6.07511 41.5 -5.62601 41.4553 -5.22496 41.3658C-4.82061 41.273 -4.41459 41.152 -4.00692 41.0028ZM-0.223544 43.2699L3.45543 37.3636H4.80771V45H3.63441V39.0938L-0.0246802 45H-1.39684V37.3636H-0.223544V43.2699ZM10.0589 45.1591C9.34304 45.1591 8.72656 44.9901 8.20952 44.652C7.69247 44.3139 7.29474 43.8482 7.01634 43.255C6.73793 42.6617 6.59872 41.9839 6.59872 41.2216C6.59872 40.446 6.74124 39.7616 7.02628 39.1683C7.31463 38.5717 7.71567 38.1061 8.2294 37.7713C8.74645 37.4332 9.34967 37.2642 10.0391 37.2642C10.576 37.2642 11.0599 37.3636 11.4908 37.5625C11.9216 37.7614 12.2746 38.0398 12.5497 38.3977C12.8248 38.7557 12.9955 39.1733 13.0618 39.6506H11.8885C11.799 39.3026 11.6001 38.9943 11.2919 38.7259C10.987 38.4541 10.576 38.3182 10.0589 38.3182C9.60156 38.3182 9.20052 38.4375 8.85582 38.6761C8.51444 38.9115 8.24763 39.2446 8.0554 39.6754C7.86648 40.103 7.77202 40.6051 7.77202 41.1818C7.77202 41.7718 7.86482 42.2855 8.05043 42.723C8.23935 43.1605 8.5045 43.5002 8.84588 43.7422C9.19058 43.9841 9.59493 44.1051 10.0589 44.1051C10.3639 44.1051 10.6406 44.0521 10.8892 43.946C11.1378 43.84 11.3482 43.6875 11.5206 43.4886C11.6929 43.2898 11.8156 43.0511 11.8885 42.7727H13.0618C12.9955 43.2235 12.8314 43.6295 12.5696 43.9908C12.3111 44.3487 11.968 44.6338 11.5405 44.8459C11.1162 45.0547 10.6224 45.1591 10.0589 45.1591ZM14.1754 38.4574V37.3636H20.38V38.4574H17.8743V45H16.701V38.4574H14.1754ZM23.2647 43.2699L26.9437 37.3636H28.296V45H27.1227V39.0938L23.4636 45H22.0914V37.3636H23.2647V43.2699ZM29.4059 38.4574V37.3636H35.6104V38.4574H33.1048V45H31.9315V38.4574H29.4059ZM38.3361 40.1278H40.5236C41.4185 40.1278 42.1029 40.3549 42.5769 40.8089C43.0508 41.263 43.2878 41.8381 43.2878 42.5341C43.2878 42.9915 43.1818 43.4074 42.9696 43.782C42.7575 44.1532 42.446 44.4498 42.035 44.6719C41.624 44.8906 41.1202 45 40.5236 45H37.3219V37.3636H38.4952V43.9062H40.5236C40.9876 43.9062 41.3688 43.7836 41.6671 43.5384C41.9654 43.2931 42.1145 42.9782 42.1145 42.5938C42.1145 42.1894 41.9654 41.8596 41.6671 41.6044C41.3688 41.3492 40.9876 41.2216 40.5236 41.2216H38.3361V40.1278Z" fill="#CCCCCC"/>
<g id="content">
<g id="block 1">
</g>
</g>
</g>
<g id="card">
<rect x="64" y="26" width="280" height="219" rx="16" fill="white"/>
<g id="logo" clip-path="url(#clip1_0_1)">
<g id="logo_2">
<g id="logo_3">
<g id="Group 26">
<path id="Polygon 1" d="M84.7569 56.0721L80.0361 48.2969H89.4585L84.7569 56.0721Z" fill="#1E22AA"/>
<path id="Polygon 2" d="M97.0063 57.4635L93.3568 63.7656H100.656L97.0063 57.4635Z" fill="#1E22AA"/>
<path id="Rectangle 70" d="M84.8237 64.1857H92.6389V79.9218H84.8237V64.1857Z" fill="#1E22AA"/>
<path id="Subtract" fill-rule="evenodd" clip-rule="evenodd" d="M93.0991 79.9218C97.5 79.9218 101.068 76.3992 101.068 72.0538C101.068 67.7084 97.5 64.1857 93.0991 64.1857V79.9218Z" fill="#1E22AA"/>
<path id="Rectangle 71" d="M84.7568 56.6667H92.6848V63.8019H84.7568V56.6667Z" fill="#1E22AA"/>
<path id="Rectangle 73" d="M97.1597 56.9288L102.217 48.4496L111.028 63.8802H101.221L97.1597 56.9288Z" fill="#1E22AA"/>
<path id="Rectangle 72" d="M89.8806 48.2969H97.6192L92.6389 56.6997H84.8237L89.8806 48.2969Z" fill="#1E22AA"/>
</g>
</g>
</g>
</g>
</g>
<rect id="Rectangle 74" x="-366" y="-592" width="1440" height="1784" fill="black" fill-opacity="0.5"/>
<g id="pop up_2" filter="url(#filter0_d_0_1)">
<rect x="-36" y="-36" width="780" height="449" rx="16" fill="white"/>
<g id="logo_4" clip-path="url(#clip2_0_1)">
<g id="logo-man 1">
<rect width="101" height="101" rx="50.5" fill="#F3F4F8"/>
<path id="Vector" d="M63.5289 43.9075C63.9039 44.1896 64.2305 44.3353 64.5616 44.3944L65.8414 50.3418L69.4913 44.9768L68.7675 44.5128L68.613 44.4172C69.3236 42.6789 69.8532 40.8633 69.3501 40.108C68.7189 39.2069 66.1812 36.4812 66.0047 36.2764C65.0866 35.2617 63.8555 35.6713 63.1758 36.6222C62.8888 37.0773 62.5137 37.4777 62.3197 37.9055C62.3239 37.901 60.2893 41.5275 63.5289 43.9075Z" fill="#171717"/>
<path id="Vector_2" d="M34.5426 80.9124C33.4569 78.6191 35.156 74.9512 35.2002 74.9603C35.3723 74.9968 35.6812 75.0469 35.6812 75.0469L35.9813 75.8931C35.9813 75.8931 36.074 75.9024 36.1357 75.9159C41.1581 76.9126 46.8381 76.685 47.9415 75.8658C50.6645 73.8637 53.3389 68.6807 54.1821 66.1234C54.1821 66.1234 59.3015 63.0472 63.3573 63.5342C66.2966 63.8754 67.4926 66.5603 67.4838 70.4918C67.678 70.4918 68.7593 70.6102 68.7593 70.6102C68.7593 70.6102 68.6665 71.0378 68.6489 71.2336C68.6489 71.4384 68.1855 71.9434 68.2297 72.1346C68.5519 73.6634 69.2492 75.3426 70.7806 76.0889C76.1163 74.7783 81.2181 69.6227 81.2181 69.6227L79.2057 67.8206C77.6433 69.1403 75.2292 70.2552 73.6273 70.4327C73.6273 70.4327 75.2248 58.2237 73.5389 56.5856C71.4823 54.5606 68.393 53.5276 66.5967 53.8008L67.8236 59.4342L45.5451 64.9767C45.5451 64.9767 44.3049 61.5728 43.9386 60.4307C43.9739 63.2247 42.116 67.6797 41.3435 68.5625C39.4988 70.8102 36.1843 70.8057 33.9688 70.2962L31.9915 69.782C31.9915 69.782 30.3189 72.1892 29.7012 73.568C26.9782 79.8293 32.5653 82.4414 32.5653 82.4414H76.3061C75.4102 82.1001 65.5905 79.1831 56.7285 79.1831C48.661 79.1924 40.0724 79.5745 34.5426 80.9124Z" fill="#171717"/>
<path id="Vector_3" d="M40.0143 57.6957C40.0187 57.6957 40.0275 57.6957 40.0406 57.6957C40.045 57.6957 40.0494 57.6957 40.0494 57.6957C40.0627 57.6957 40.0759 57.6957 40.0936 57.6957C40.098 57.6957 40.1069 57.6957 40.1113 57.6957C40.129 57.6957 40.1466 57.6957 40.1687 57.691C40.182 57.691 40.1908 57.691 40.2041 57.691C40.226 57.691 40.2481 57.6865 40.2746 57.6865C40.2878 57.6865 40.3011 57.6865 40.3143 57.682C40.3453 57.682 40.3762 57.6774 40.4069 57.6774C40.4202 57.6774 40.4334 57.6774 40.4511 57.6729C40.4865 57.6684 40.5262 57.6684 40.5614 57.6637C40.5746 57.6637 40.5879 57.6637 40.6011 57.6592C40.6498 57.6547 40.6984 57.6501 40.7512 57.6456C40.76 57.6456 40.7644 57.6456 40.7733 57.6456C40.9586 57.6319 41.1705 57.6091 41.4001 57.5863C41.4131 57.5863 41.4264 57.5818 41.4397 57.5818C41.5015 57.5728 41.5678 57.5683 41.6295 57.559C41.6471 57.559 41.6648 57.5545 41.6825 57.5545C41.7443 57.5455 41.8104 57.541 41.8723 57.5317C41.8944 57.5272 41.912 57.5272 41.9339 57.5227C41.9958 57.5137 42.0576 57.5045 42.1237 57.4954C42.1458 57.4909 42.1679 57.4909 42.19 57.4864C42.2519 57.4772 42.3179 57.4681 42.3842 57.4591C42.4063 57.4544 42.4284 57.4544 42.4503 57.4499C42.521 57.4408 42.5917 57.4271 42.6622 57.4181C42.6799 57.4135 42.6931 57.4135 42.7108 57.409C43.9421 57.2088 45.244 56.8765 45.809 56.3533C45.8311 56.3395 47.7949 52.7994 45.9767 51.4161C45.4294 50.9336 44.5953 51.1111 41.8988 51.2113C41.5985 51.2248 41.3206 51.2293 41.0647 51.2293C40.941 51.2293 40.8263 51.2293 40.716 51.2248C40.7072 51.2248 40.6939 51.2248 40.6851 51.2248C40.5746 51.2203 40.4688 51.2203 40.3674 51.2158C40.3585 51.2158 40.3497 51.2158 40.3409 51.2158C40.2348 51.2113 40.1378 51.2066 40.0406 51.1975C40.0362 51.1975 40.0362 51.1975 40.032 51.1975C39.2374 51.143 38.7432 51.0338 38.4785 50.9609H38.474C38.4431 50.9519 38.4166 50.9427 38.3945 50.9382C38.3901 50.9382 38.3857 50.9336 38.3857 50.9336C38.3636 50.9246 38.3459 50.9199 38.3282 50.9154C38.3238 50.9154 38.3194 50.9109 38.315 50.9109C38.3019 50.9064 38.2887 50.9018 38.2798 50.8973C38.2754 50.8973 38.271 50.8926 38.2666 50.8926C38.2622 50.8881 38.2533 50.8881 38.2489 50.8836C38.2445 50.8836 38.2401 50.8791 38.2401 50.8791L40.4379 49.2089L38.6152 41.6825C38.6152 41.6825 54.9711 38.083 57.5397 37.2413C57.5529 37.2368 57.5706 37.2322 57.5839 37.2275L57.5795 37.2095C55.2844 35.0433 51.842 33.3824 46.1886 33.9785L45.0279 32.8409C45.7075 32.4724 46.0385 32.4268 46.6077 31.8307C44.8248 28.0402 43.9994 23.9267 43.9687 21.6604C45.2882 21.2828 50.5269 20.8141 51.6434 14.8484C51.6434 14.8484 47.9053 17.474 45.0146 15.9496C40.129 13.3695 36.691 18.0565 36.691 18.0565C36.691 18.0565 33.3809 18.2021 33.4604 20.2589C33.681 26.3885 35.5964 30.8753 39.2905 36.1036C34.7844 38.1513 32.5424 40.14 30.446 43.3161C27.6479 47.5254 26.2446 53.1223 26.2446 53.1223C26.2446 53.1223 30.1548 58.0187 39.2993 59.0472C39.4891 58.2963 39.8554 58.1051 40.0143 57.6957Z" fill="#171717"/>
</g>
</g>
</g>
</g>
<defs>
<filter id="filter0_d_0_1" x="-86" y="-76" width="880" height="549" filterUnits="userSpaceOnUse" color-interpolation-filters="sRGB">
<feFlood flood-opacity="0" result="BackgroundImageFix"/>
<feColorMatrix in="SourceAlpha" type="matrix" values="0 0 0 0 0 0 0 0 0 0 0 0 0 0 0 0 0 0 127 0" result="hardAlpha"/>
<feOffset dy="10"/>
<feGaussianBlur stdDeviation="25"/>
<feComposite in2="hardAlpha" operator="out"/>
<feColorMatrix type="matrix" values="0 0 0 0 0.0152313 0 0 0 0 0.000320853 0 0 0 0 0.1925 0 0 0 0.1 0"/>
<feBlend mode="normal" in2="BackgroundImageFix" result="effect1_dropShadow_0_1"/>
<feBlend mode="normal" in="SourceGraphic" in2="effect1_dropShadow_0_1" result="shape"/>
</filter>
<clipPath id="clip0_0_1">
<rect width="1440" height="1784" fill="white" transform="translate(-366 -592)"/>
</clipPath>
<clipPath id="clip1_0_1">
<rect width="44" height="44" fill="white" transform="translate(80 42)"/>
</clipPath>
<clipPath id="clip2_0_1">
<rect width="101" height="101" fill="white"/>
</clipPath>
</defs>
</svg>
